<?xml version="1.0" encoding="UTF-8"?>
<svg version="1.1" xmlns="http://www.w3.org/2000/svg" width="180" height="180">
<path d="M0 0 C0.66 0 1.32 0 2 0 C2.51046875 1.07314453 2.51046875 1.07314453 3.03125 2.16796875 C7.36574619 11.07904734 12.3660688 19.37353124 17.73828125 27.69140625 C19 30 19 30 19 33 C19.66 33 20.32 33 21 33 C24.875 39.625 24.875 39.625 26 43 C26.66 43 27.32 43 28 43 C29.60546875 44.16796875 29.60546875 44.16796875 31 46 C31.91087258 52.0822782 31.01817611 58.38013901 30.07421875 64.4140625 C28.81344069 72.95432621 28.06456824 81.52019611 27.32275391 90.11645508 C26.53829628 99.13771776 25.50523131 108.06698704 24 117 C20.10378668 116.5238907 16.20810284 116.04357674 12.3125 115.5625 C10.65831055 115.36043945 10.65831055 115.36043945 8.97070312 115.15429688 C7.3706543 114.95610352 7.3706543 114.95610352 5.73828125 114.75390625 C4.75899658 114.63345947 3.77971191 114.5130127 2.77075195 114.38891602 C0.94577861 114.13275402 -0.8727477 113.8244962 -2.67944336 113.46118164 C-9.58752555 112.08828661 -17.10802222 112.74691313 -24 114 C-25.30862978 110.07411065 -24.10224157 107.62289014 -22.8125 103.875 C-20.21116961 95.96768071 -18.26181582 88.00148646 -16.43212891 79.88671875 C-15.84683776 77.33127808 -15.20850331 74.79070574 -14.5625 72.25 C-14.3253125 71.30125 -14.088125 70.3525 -13.84375 69.375 C-13.38166309 67.52665236 -12.91834805 65.67860403 -12.44921875 63.83203125 C-8.8648996 49.65662714 -6.23380256 35.44574165 -4 21 C-3.12411886 15.34754472 -3.12411886 15.34754472 -2.70556641 12.66064453 C-2.44987614 11.01120408 -2.19803985 9.36116003 -1.95068359 7.71044922 C-1.10949609 2.21899219 -1.10949609 2.21899219 0 0 Z " fill="#8A3636" transform="translate(83,52)"/>
<path d="M0 0 C0.66 0 1.32 0 2 0 C3.80211266 2.23639227 5.47564497 4.46782864 7.125 6.8125 C7.82689453 7.77639648 7.82689453 7.77639648 8.54296875 8.75976562 C12 13.62279063 12 13.62279063 12 17 C12.66 17 13.32 17 14 17 C16.29648649 19.5614657 17 20.47967572 17 24 C17.66 24 18.32 24 19 24 C20.2890625 25.4609375 20.2890625 25.4609375 21.625 27.375 C22.07101563 28.00148438 22.51703125 28.62796875 22.9765625 29.2734375 C24 31 24 31 24 33 C24.66 33 25.32 33 26 33 C27.70884005 34.62339805 29.37446717 36.29319053 31 38 C31.66 38.66 32.32 39.32 33 40 C33.07519531 41.85668945 33.07519531 41.85668945 32.828125 44.11328125 C32.74175781 44.942229 32.65539063 45.77117676 32.56640625 46.62524414 C32.46199219 47.51203857 32.35757813 48.39883301 32.25 49.3125 C32.10111328 50.67846313 32.10111328 50.67846313 31.94921875 52.07202148 C31.29308076 57.93210202 30.46474269 63.74842814 29.50390625 69.56640625 C28.72879257 74.84799478 28.21456614 80.15472225 27.69726562 85.46704102 C27.31088495 89.36615775 26.87213077 93.17188619 26 97 C19.34088073 97.3061664 13.04974905 96.11248791 6.5 95 C-3.11901201 93.42982388 -12.25931825 92.42134564 -22 93 C-20.51146259 85.86246313 -18.58289885 78.92261896 -16.5 71.9375 C-14.09895878 63.94544062 -14.09895878 63.94544062 -11.96875 55.87890625 C-11.22774932 52.91191561 -10.40731014 50.03704373 -9.5 47.12109375 C-7.99015392 42.15055146 -6.93193753 37.16936145 -6 32.0625 C-5.74899536 30.72191528 -5.74899536 30.72191528 -5.49291992 29.35424805 C-4.17467291 22.21285367 -3.01196567 15.04948949 -1.95117188 7.86547852 C-1.10170951 2.20341901 -1.10170951 2.20341901 0 0 Z " fill="#893738" transform="translate(26,64)"/>
<path d="M0 0 C0.66 0 1.32 0 2 0 C3.2890625 1.4609375 3.2890625 1.4609375 4.625 3.375 C5.07101563 4.00148438 5.51703125 4.62796875 5.9765625 5.2734375 C7 7 7 7 7 9 C7.66 9 8.32 9 9 9 C10.37898043 10.69810754 11.67959478 12.46035459 12.9375 14.25 C13.62714844 15.22453125 14.31679687 16.1990625 15.02734375 17.203125 C16.00380859 18.58757812 16.00380859 18.58757812 17 20 C17.86818359 21.10601562 17.86818359 21.10601562 18.75390625 22.234375 C20 24 20 24 20 26 C20.66 26 21.32 26 22 26 C23.2890625 27.4609375 23.2890625 27.4609375 24.625 29.375 C25.07101563 30.00148438 25.51703125 30.62796875 25.9765625 31.2734375 C27 33 27 33 27 35 C27.66 35 28.32 35 29 35 C30.35759933 36.67789874 31.63711805 38.41943088 32.875 40.1875 C34.93750403 43.11656941 36.97459574 45.96961965 39.2734375 48.71875 C41 51 41 51 40.75 53.3125 C40.5025 53.869375 40.255 54.42625 40 55 C38.02 55.495 38.02 55.495 36 56 C36 56.66 36 57.32 36 58 C23.47053371 65.43273424 10.65706321 71.86758754 -3 77 C-3.98484375 77.37253906 -4.9696875 77.74507813 -5.984375 78.12890625 C-13.70731707 81 -13.70731707 81 -16 81 C-15.30936671 75.34427329 -13.47959289 70.22863595 -11.625 64.875 C-6.37020249 49.28195956 -3.84615812 34.3297711 -2 18 C-1.89268555 17.05930664 -1.78537109 16.11861328 -1.67480469 15.14941406 C-1.1005317 10.10128105 -0.54216256 5.05167939 0 0 Z " fill="#853739" transform="translate(130,88)"/>
<path d="M0 0 C-1.78824528 12.91025864 -3.73131294 25.79292945 -5.75921631 38.66748047 C-7.92630938 52.43248143 -9.98607267 66.21168665 -12 80 C-15.76690636 78.26142784 -18.21232537 76.09741625 -21 73 C-21 72.34 -21 71.68 -21 71 C-21.66 71 -22.32 71 -23 71 C-24.71475539 68.84609994 -26.30644878 66.69429308 -27.875 64.4375 C-28.30941406 63.82841797 -28.74382812 63.21933594 -29.19140625 62.59179688 C-32.06252835 58.5179074 -34.55860284 54.34352989 -37 50 C-38.75219837 47.1319959 -40.54821917 44.29118723 -42.3515625 41.45507812 C-45 37.21857378 -45 37.21857378 -45 35 C-43.56570999 34.32645501 -42.12742943 33.66140299 -40.6875 33 C-39.88699219 32.62875 -39.08648437 32.2575 -38.26171875 31.875 C-36 31 -36 31 -33 31 C-33 30.34 -33 29.68 -33 29 C-31.20703125 27.6328125 -31.20703125 27.6328125 -28.8125 26.125 C-20.9117337 20.9975136 -15.31905377 15.04630129 -9.375 7.8125 C-2.77777778 0 -2.77777778 0 0 0 Z " fill="#83393A" transform="translate(130,5)"/>
<path d="M0 0 C-0.3972445 7.23258954 -1.35314863 14.19252004 -2.77050781 21.29418945 C-4.33095822 29.33614925 -5.28116275 37.45402512 -6.3046875 45.578125 C-7.08282174 51.73889028 -8.00009065 57.87114388 -9 64 C-10.8125 64.625 -10.8125 64.625 -13 65 C-13.99 64.34 -14.98 63.68 -16 63 C-16 62.34 -16 61.68 -16 61 C-17.485 60.505 -17.485 60.505 -19 60 C-19 59.34 -19 58.68 -19 58 C-19.66 58 -20.32 58 -21 58 C-21 57.34 -21 56.68 -21 56 C-22.485 55.505 -22.485 55.505 -24 55 C-25.82421875 53.00390625 -25.82421875 53.00390625 -27.6875 50.5625 C-28.31011719 49.75941406 -28.93273438 48.95632812 -29.57421875 48.12890625 C-31 46 -31 46 -31 44 C-31.66 44 -32.32 44 -33 44 C-34.82779998 41.76470988 -36.51881113 39.5366251 -38.1875 37.1875 C-38.66380859 36.54490234 -39.14011719 35.90230469 -39.63085938 35.24023438 C-40.83985561 33.55183876 -41.92915191 31.77922343 -43 30 C-42.505 28.515 -42.505 28.515 -42 27 C-39.4453125 25.859375 -39.4453125 25.859375 -36.125 24.75 C-30.30985178 22.64528739 -25.44692455 20.01438041 -20.33984375 16.55078125 C-18.27511937 15.18234122 -16.23931652 14.04984123 -14 13 C-14 12.34 -14 11.68 -14 11 C-13.21625 10.7525 -12.4325 10.505 -11.625 10.25 C-8.5144918 8.76880562 -8.38379532 8.02705226 -7 5 C-2.45454545 0 -2.45454545 0 0 0 Z " fill="#813739" transform="translate(71,27)"/>
<path d="M0 0 C-0.52405563 6.69007182 -1.10463925 13.3487487 -2 20 C-2.33 20 -2.66 20 -3 20 C-3 15.38 -3 10.76 -3 6 C-4.32 7.32 -5.64 8.64 -7 10 C-11.5 13 -11.5 13 -14 13 C-14 12.34 -14 11.68 -14 11 C-13.21625 10.7525 -12.4325 10.505 -11.625 10.25 C-8.5144918 8.76880562 -8.38379532 8.02705226 -7 5 C-2.45454545 0 -2.45454545 0 0 0 Z " fill="#896A6E" transform="translate(71,27)"/>
<path d="M0 0 C1.04449911 3.13349732 0.93423645 3.98968256 0 7 C0.51820312 6.83886719 1.03640625 6.67773438 1.5703125 6.51171875 C11.74389424 4.36905121 27.98805682 4.78140516 37 10 C34.77057252 9.85820962 32.54146372 9.71140302 30.3125 9.5625 C29.07113281 9.48128906 27.82976562 9.40007812 26.55078125 9.31640625 C23 9 23 9 20.41015625 8.47265625 C13.45863507 7.10939197 5.93393681 7.73928422 -1 9 C-2.25541557 5.23375329 -1.37061958 3.62811066 0 0 Z " fill="#907A7D" transform="translate(60,157)"/>
<path d="M0 0 C0.66 0 1.32 0 2 0 C1.8584453 3.04192013 1.71190099 6.08346347 1.5625 9.125 C1.52318359 9.9809375 1.48386719 10.836875 1.44335938 11.71875 C1.21843598 16.21721792 0.86459117 20.56806207 0 25 C-0.33 25 -0.66 25 -1 25 C-1 19.06 -1 13.12 -1 7 C-1.33 7 -1.66 7 -2 7 C-2.125 4.625 -2.125 4.625 -2 2 C-1.34 1.34 -0.68 0.68 0 0 Z " fill="#865456" transform="translate(108,137)"/>
<path d="M0 0 C1.4540625 0.0309375 1.4540625 0.0309375 2.9375 0.0625 C0.67696101 2.59111573 -1.46150064 3.90106528 -4.5625 5.25 C-5.3359375 5.59417969 -6.109375 5.93835938 -6.90625 6.29296875 C-9.0625 7.0625 -9.0625 7.0625 -12.0625 7.0625 C-10.98043075 4.11140203 -10.38855724 3.22155231 -7.5 1.8125 C-5.0625 1.0625 -5.0625 1.0625 -4.0625 1.0625 C-3.0625 0.0625 -3.0625 0.0625 0 0 Z " fill="#7F4B4A" transform="translate(154.0625,149.9375)"/>
<path d="M0 0 C0.66 0 1.32 0 2 0 C2.8638129 1.45264038 3.71580454 2.9123163 4.5625 4.375 C5.27599609 5.59316406 5.27599609 5.59316406 6.00390625 6.8359375 C6.33261719 7.55007812 6.66132812 8.26421875 7 9 C6.67 9.66 6.34 10.32 6 11 C3 7.25 3 7.25 3 5 C-0.32957948 7.59980864 -0.61761712 10.11064555 -1.1875 14.1875 C-1.34605469 15.27417969 -1.50460938 16.36085938 -1.66796875 17.48046875 C-1.77753906 18.31191406 -1.88710937 19.14335938 -2 20 C-3.37458951 16.14727729 -2.7321783 12.85908778 -2.125 8.875 C-1.94195312 7.63492188 -1.75890625 6.39484375 -1.5703125 5.1171875 C-1 2 -1 2 0 0 Z " fill="#856E6F" transform="translate(83,52)"/>
<path d="M0 0 C0.66 0 1.32 0 2 0 C1.52316428 3.39616487 1.04311931 6.79186868 0.5625 10.1875 C0.42779297 11.14720703 0.29308594 12.10691406 0.15429688 13.09570312 C0.02216797 14.02705078 -0.10996094 14.95839844 -0.24609375 15.91796875 C-0.36654053 16.77156982 -0.4869873 17.6251709 -0.61108398 18.50463867 C-1.00322148 21.02066964 -1.48265373 23.50697664 -2 26 C-2.33 26 -2.66 26 -3 26 C-2.46255489 19.34482863 -1.89222589 12.69793181 -1.18359375 6.05859375 C-0.95558426 3.84643739 -0.95558426 3.84643739 -1 1 C-0.67 0.67 -0.34 0.34 0 0 Z " fill="#8D7779" transform="translate(128,5)"/>
<path d="M0 0 C1.32511184 4.45075734 1.10483875 8.50643941 0 13 C-2.0625 15.5625 -2.0625 15.5625 -4 17 C-3.35729017 11.0870696 -1.80996216 5.65755469 0 0 Z " fill="#976A6A" transform="translate(13,124)"/>
<path d="M0 0 C1.0326802 2.78823655 1.04509293 3.8677274 0.0625 6.75 C-0.288125 7.4925 -0.63875 8.235 -1 9 C0.65 8.67 2.3 8.34 4 8 C3.67 8.66 3.34 9.32 3 10 C-0.0625 10.625 -0.0625 10.625 -3 11 C-2.44894091 7.0507432 -1.61064629 3.65079826 0 0 Z " fill="#8E7678" transform="translate(117,158)"/>
<path d="M0 0 C0.33 0 0.66 0 1 0 C1 2.97 1 5.94 1 9 C-0.98 9.99 -0.98 9.99 -3 11 C-2.53199289 6.94393835 -2.12046792 3.53411321 0 0 Z " fill="#7A3534" transform="translate(109,128)"/>
<path d="M0 0 C1.04449911 3.13349732 0.93423645 3.98968256 0 7 C1.98 7 3.96 7 6 7 C6 7.33 6 7.66 6 8 C3.69 8.33 1.38 8.66 -1 9 C-2.25541557 5.23375329 -1.37061958 3.62811066 0 0 Z " fill="#9F9092" transform="translate(60,157)"/>
<path d="M0 0 C1.98 0 3.96 0 6 0 C3.60490662 2.89932357 1.68754757 3.50168276 -2 4 C-1.34 2.68 -0.68 1.36 0 0 Z " fill="#835E5E" transform="translate(151,150)"/>
<path d="M0 0 C0.33 0 0.66 0 1 0 C1.25 2.25 1.25 2.25 1 5 C-1 7.3125 -1 7.3125 -3 9 C-2.25 2.25 -2.25 2.25 0 0 Z " fill="#793130" transform="translate(107,143)"/>
<path d="M0 0 C-0.33 0.66 -0.66 1.32 -1 2 C-3.5625 2.625 -3.5625 2.625 -6 3 C-6.33 2.01 -6.66 1.02 -7 0 C-3.86650268 -1.04449911 -3.01031744 -0.93423645 0 0 Z " fill="#7D5456" transform="translate(92,40)"/>
</svg>
